<svg xmlns="http://www.w3.org/2000/svg" viewBox="0 0 591.82 938.64"><defs><style>.cls-1{isolation:isolate;}.cls-2{fill:#cf1d1e;}.cls-3{fill:#b21b24;}.cls-4{fill:#9b9b9a;}.cls-5{fill:#e4e0e0;}.cls-6{fill:#888485;}.cls-11,.cls-128,.cls-129,.cls-13,.cls-130,.cls-135,.cls-15,.cls-20,.cls-21,.cls-7{fill:#fff;}.cls-8{fill:#c2e3e6;opacity:0.67;}.cls-23,.cls-25,.cls-57,.cls-9{fill:none;}.cls-9{stroke:#010202;}.cls-131,.cls-132,.cls-133,.cls-134,.cls-23,.cls-25,.cls-57,.cls-58,.cls-9{stroke-miterlimit:10;}.cls-10{fill:#931821;}.cls-11{opacity:0.71;}.cls-12{fill:#383737;}.cls-13,.cls-16{opacity:0.4;}.cls-14{fill:#7a1620;}.cls-15{opacity:0.3;}.cls-136,.cls-16{fill:#646463;}.cls-17,.cls-18,.cls-19{fill:#252626;}.cls-17,.cls-22{opacity:0.85;}.cls-18{opacity:0.55;}.cls-19{opacity:0.76;}.cls-20{opacity:0.38;}.cls-21{opacity:0.49;}.cls-22,.cls-50{fill:#393a3a;}.cls-131,.cls-132,.cls-133,.cls-134,.cls-23,.cls-25,.cls-57,.cls-58{stroke:#1d1d1b;}.cls-23{stroke-width:2px;}.cls-24{fill:#4a4848;}.cls-25{stroke-width:4px;}.cls-26{fill:#494848;}.cls-27{fill:#484747;}.cls-28{fill:#484646;}.cls-29{fill:#474646;}.cls-30{fill:#474546;}.cls-31{fill:#464545;}.cls-32{fill:#454444;}.cls-33{fill:#444344;}.cls-34{fill:#444343;}.cls-35{fill:#434242;}.cls-36{fill:#424142;}.cls-37{fill:#424141;}.cls-38{fill:#414041;}.cls-39{fill:#404040;}.cls-40{fill:#403f3f;}.cls-41{fill:#3f3f3f;}.cls-42{fill:#3f3e3e;}.cls-43{fill:#3e3d3e;}.cls-44{fill:#3d3d3d;}.cls-45{fill:#3d3c3c;}.cls-46{fill:#3c3c3c;}.cls-47{fill:#3c3b3b;}.cls-48{fill:#3b3b3b;}.cls-49{fill:#3a3a3a;}.cls-51{fill:#393939;}.cls-52{fill:#383838;}.cls-53{fill:#373737;}.cls-54{fill:#363636;}.cls-55{fill:#353535;}.cls-56{fill:#353435;}.cls-57{stroke-width:3px;}.cls-58{fill:#cccbcb;stroke-width:8px;}.cls-59{fill:#cbcaca;}.cls-60{fill:#cac9c9;}.cls-61{fill:#c8c7c8;}.cls-62{fill:#c7c6c6;}.cls-63{fill:#c5c5c5;}.cls-64{fill:#c5c4c4;}.cls-65{fill:#c3c3c3;}.cls-66{fill:#c2c1c1;}.cls-67{fill:silver;}.cls-68{fill:#bfbebe;}.cls-69{fill:#bebdbd;}.cls-70{fill:#bdbcbc;}.cls-71{fill:#bbb;}.cls-72{fill:#bab9b9;}.cls-73{fill:#b9b8b8;}.cls-74{fill:#b8b7b7;}.cls-75{fill:#b6b5b6;}.cls-76{fill:#b5b4b4;}.cls-77{fill:#b4b3b3;}.cls-78{fill:#b3b2b2;}.cls-79{fill:#b1b1b1;}.cls-80{fill:#b0afb0;}.cls-81{fill:#afaeae;}.cls-82{fill:#adacad;}.cls-83{fill:#adacac;}.cls-84{fill:#ababab;}.cls-85{fill:#aaa9aa;}.cls-86{fill:#a9a8a8;}.cls-87{fill:#a8a7a7;}.cls-88{fill:#a7a6a6;}.cls-89{fill:#a5a4a5;}.cls-90{fill:#a4a3a4;}.cls-91{fill:#a3a2a2;}.cls-92{fill:#a2a1a1;}.cls-93{fill:#a0a0a0;}.cls-94{fill:#9f9f9f;}.cls-95{fill:#9e9d9d;}.cls-96{fill:#9d9c9c;}.cls-97{fill:#9c9c9b;}.cls-98{fill:#9b9a9b;}.cls-99{fill:#999;}.cls-100{fill:#989898;}.cls-101{fill:#979696;}.cls-102{fill:#969596;}.cls-103{fill:#959495;}.cls-104{fill:#949394;}.cls-105{fill:#929292;}.cls-106{fill:#929191;}.cls-107{fill:#919090;}.cls-108{fill:#908f8f;}.cls-109{fill:#8f8e8e;}.cls-110{fill:#8e8d8d;}.cls-111{fill:#8d8c8c;}.cls-112{fill:#8c8b8b;}.cls-113{fill:#8b8a8a;}.cls-114{fill:#898989;}.cls-115{fill:#888787;}.cls-116{fill:#868686;}.cls-117{fill:#858585;}.cls-118{fill:#848384;}.cls-119{fill:#848383;}.cls-120{fill:#828181;}.cls-121{fill:#818081;}.cls-122{fill:gray;}.cls-123{fill:#807f7f;}.cls-124{fill:#7f7f7f;}.cls-125{fill:#7e7d7d;}.cls-126{fill:#7d7c7d;}.cls-127{fill:#7c7b7b;}.cls-128{opacity:0.16;}.cls-128,.cls-129{mix-blend-mode:screen;}.cls-129{opacity:0.1;}.cls-130{opacity:0.78;}.cls-131{fill:#ff8b00;}.cls-132{fill:#f7e608;}.cls-133{fill:#6dcc11;}.cls-134{fill:#ef0a0a;}.cls-135{opacity:0.25;}.cls-136{opacity:0.18;}</style></defs><title>Asset 4</title><g class="cls-1"><g id="Layer_2" data-name="Layer 2"><g id="Layer_1-2" data-name="Layer 1"><path class="cls-2" d="M469.63,474.42s20.95,4.28,29.8,28.91c0,0,8.15,18.61,10.82,88.86,0,0,11.81,129.53,17.07,169.83,0,0,1,64.23,30.89,71.35,0,0-8.2,38.89-177.36,32.53v-96L439,766.17c2.65-40.53-7.73-290.93-7.73-290.93Z"/><path class="cls-2" d="M151.16,475.09S116.3,473.45,99,472.4c0,0-20.22,2.06-29.48,72.91,0,0-6,51.26-9.93,138.37,0,0-8.59,155.83-31.71,158.49,0,0,6.22,10.48,43.87,17.73,0,0,57.43,12.2,159.13,2.11V772.74l-83.65-1.22S142.55,690.18,151.16,475.09Z"/><path class="cls-3" d="M27.83,842.17s-14.31-.56-17.27,23.11c0,0-5.18,31.46,8.64,36.51,0,0,81.86,37.82,211.47,11.67l.16-51.45S58.45,877.22,27.83,842.17Z"/><path class="cls-3" d="M380.85,865.9l.87,48.37s157.65.56,189.81-20.1c0,0,9.05-.62,10.39-22.07,0,0,8.67-33.51-23.71-38.73C558.21,833.37,555.79,871.71,380.85,865.9Z"/><path class="cls-3" d="M230.83,862l-.16,51.45s61.67,35,151.05.81l-.87-48.37S298.14,894.06,230.83,862Z"/><path class="cls-4" d="M151.16,475.09s-13.88,240.87-4,296.43c0,0,122.7,5.27,291.8-5.35,0,0,8.54-173.43-7.73-290.93C431.24,475.24,269.84,481.81,151.16,475.09Z"/><path class="cls-5" d="M97.28,446.34s178.1-28.81,364.22,0c0,0,27.88,11.55,8.13,28.08,0,0-148.09,7.2-370.68-2C99,472.4,81.73,461.63,97.28,446.34Z"/><path class="cls-5" d="M121.56,111.52s174-29.83,329.53-4.09c0,0,.52-9.9-2.74-18.53,0,0-134.32-33.52-320.93,0C127.42,88.9,123.36,97.42,121.56,111.52Z"/><path class="cls-2" d="M127.42,88.9s181.79-31.82,320.93,0c0,0-4.17-45.8-87.75-65,0,0-73.13-15.09-159,8.19C201.59,32.11,142,46.74,127.42,88.9Z"/><path class="cls-6" d="M327.23,19.11s7.64-15.58-31.69-18c0,0-50-7.2-53.33,22.43A450.08,450.08,0,0,1,327.23,19.11Z"/><path class="cls-7" d="M121.56,111.52S14.15,237.91,21,333.58c0,0-5,64.93,76.31,112.76,0,0,165.5-30.38,364.22,0,0,0,89.31-36.81,88.52-131,0,0-3.71-92.79-98.93-207.95C451.09,107.43,316.55,81.38,121.56,111.52Z"/><path class="cls-8" d="M121.56,111.52S14.15,237.91,21,333.58c0,0-5,64.93,76.31,112.76,0,0,165.5-30.38,364.22,0,0,0,89.31-36.81,88.52-131,0,0-3.71-92.79-98.93-207.95C451.09,107.43,316.55,81.38,121.56,111.52Z"/><path class="cls-7" d="M409.62,440.1s35.7,10.93,44.77,6.23c0,0,68.32-34.64,77.39-114.58,5.13-45.18-16.67-103.24-65.62-177.53C466.16,154.22,546.44,372,409.62,440.1Z"/><text></text><text></text><line class="cls-9" x1="175.25" y1="216.86" x2="175.25" y2="216.86"/><path class="cls-10" d="M113.83,473.19s-16.59,7.44-23.65,52.59c0,0-8,43.7-11.25,119.58,0,0-6.52,80.6-9.31,124.55S72.41,726,72.41,726,60.51,828.75,44.59,852.48A44.26,44.26,0,0,1,25.3,841.59s7.32,4.83,13.37-14.25c0,0,9-25,13.6-67.78,0,0,10.51-90.59,10.67-131.24,0,0,1.3-53.39,8.49-95.26,0,0,7.22-53.08,27.52-60.66Z"/><path class="cls-7" d="M409.62,440.1s30.38,20.11,0,36.58l42.07-1.17s23.8-13-1-32.35Z"/><ellipse class="cls-11" cx="304.33" cy="7.75" rx="2.38" ry="7.08" transform="translate(247.73 306.86) rotate(-80.74)"/><path class="cls-12" d="M252.56,22.29S254.38,9,272,1c0,0-26.85,2.21-29.76,22.57Z"/><path class="cls-7" d="M425.41,83.83s7.87,11.48,0,20.89l10.9-.67s6.16-7.44-.26-18.47Z"/><path class="cls-13" d="M409.62,440.1s35.7,10.93,44.77,6.23c0,0,68.32-34.64,77.39-114.58,5.13-45.18-16.67-103.24-65.62-177.53C466.16,154.22,546.44,372,409.62,440.1Z"/><path class="cls-14" d="M25.3,841.59s8.84,9.18,19.29,10.89c0,0-14,1.37-12.3,54.12L19.2,901.79s-10,.33-9.59-24.57C9.61,877.22,8.91,843.59,25.3,841.59Z"/><polygon class="cls-14" points="380.85 865.9 381.72 914.27 385.31 914.3 384.84 866.16 380.85 865.9"/><path class="cls-15" d="M418,476.68s23.93,8.83,22.07,92.95L450.27,772s9.68,94.46,48.61,89.12,7.34-1.6,7.34-1.6-7,5.75,10.69-2.12,17-5.12,17-5.12-39.82-4.88-48.8-72.6L475,667.49l-7.45-141.25s.47-38.63-16.75-51.66"/><path class="cls-15" d="M533.87,852.24s24.15-6.42,18.93,49h0l-35.52,5.82s2.13-49.57-26.37-44.88"/><path class="cls-10" d="M151.16,475.09s-15.33,197.33-4,296.43H143s-15.66-84.72,4.09-297.34Z"/><polygon class="cls-10" points="230.35 773.2 142.99 771.06 144.13 776.62 230.18 778.01 230.35 773.2"/><path class="cls-13" d="M436.05,85.58S424,29.19,317.24,19.43c0,0,74.9,2.68,108.17,64.4Z"/><path class="cls-16" d="M99,472.4s-18.33-8.61-2.65-26.25c0,0-76-39-75.33-112.57,0,0-9.26-49.19,42.27-138.15,0,0,27.43-46.28,58.32-83.91,0,0,9.15-3.15,28.1-4.45,0,0-46.48,52.73-84,127.37,0,0-42.09,78.65-7.65,151.06,0,0,11.58,30.32,54.33,59.31,0,0-22.14,17.05,1.51,28.38"/><path class="cls-10" d="M380.85,769.91l59-3.74v3.74s-24.65,2.67-59,4.16Z"/><path class="cls-10" d="M257.57,22.17S153.86,23.57,127.42,88.9l28.78-4.66S168.28,36.66,257.57,22.17Z"/><path class="cls-16" d="M127.42,88.9s-6,15.11-5.86,22.62l28.57-4.45s-1.79-21.47,9.32-22.83Z"/><path class="cls-15" d="M371.12,868.51l-9.42,2s5.86,25.83,0,50.42l9.87-3.39A209.43,209.43,0,0,0,371.12,868.51Z"/><path class="cls-14" d="M230.83,862l-.16,51.45,8.37,3.92s-4.17-36.21,0-52Z"/><path class="cls-17" d="M332.1,662.55s-5.3,18.43-22.81,23.32c0,0-17.31,4.65-29.32-3.49,0,0-11.63-6.52-14.42-17.92l1.79-.44s5.42,9.26,7.05,10.9c0,0,10.63,10.44,24.9,10,0,0,23.22-.09,29.29-21.92Z"/><path class="cls-18" d="M95.17,474.32s104.46,9.17,206.3,5.52c0,0,104.16-.54,172.57-2.95l-4.41-2.57s-77.65,1.8-124.5,1.5c0,0-82.22.89-116.66,0,0,0-109.57,0-127.07-3.44C101.4,472.38,99.05,471,95.17,474.32Z"/><path class="cls-19" d="M389.82,674.87s-5.6,27.29-44.69,41.25c0,0-23.06,6.82-56.36,5.58,0,0-43.54,1.55-57.94-10.24,0,0-19.42-10.79-23.94-33.72h0s9.48,30.85,40.35,38h0s66.55,9.65,104.09-4.93h0s29.5-9.27,38.49-36"/><path class="cls-20" d="M372,613.35s-8.76-4.74-13-22.65c0,0-2.33-3.85,0-26.83,0,0,1.18-25.06-3.25-33,0,0-4.68-16-17.23-24.89,0,0-10.24-8-16.75-10.16,0,0,32,6.82,38.16,45,0,0,1.55,12.1,0,34.13,0,0-2.46,14.27,5,24.82,0,0,4.1,9.31,15.85,17.38"/><line class="cls-10" x1="330.69" y1="643.37" x2="329.14" y2="644.56"/><path class="cls-10" d="M329.14,644.56S332,657,328.58,663h0l1.64-.54s4.36-4.54-.46-19.11"/><path class="cls-21" d="M386.55,664.86S368.47,703.88,318,713C318,713,371.66,714.26,386.55,664.86Z"/><path class="cls-19" d="M249.33,550s-10.08,47.46,44.61,55.14c0,0,56.07,4.89,54-50.49"/><path class="cls-19" d="M281,492.6s-40.15,16.27-43.56,53.19c0,0,.91,24.75.91,29.05,0,0,2.27,8.18-4,26.78,0,0-.31,5.84-18.31,21.23,0,0-15,20.17-11.93,31.69h0s-4.51-18,13.69-37.52h0s13.83-7.81,16.7-24.28h0s3.34-9.38.78-28.87h0S234,534.85,242,523h0s11.22-24.21,39-30.36"/><path class="cls-22" d="M9.61,877.22s-25,12.47,5.68,33.17c0,0,77.9,43.61,209.27,15.52,0,0,88.22,30.69,162.85-3.24,0,0,163.21,8.66,195-22.75,0,0,21.7-21.37-.82-24.3,0,0,1.55,15-14.62,20.87,0,0-25.77,12.2-87.83,14.86,0,0-68.88,4-97.42,2.92,0,0-32.23,13.62-70.1,14.48,0,0-29,2.34-56.93-6.08,0,0-23.36-7.06-24-9.21,0,0-36.66,10.16-90.64,9.59,0,0-56.85-.1-95.44-12.59,0,0-17.49-5.05-22.15-7.22,0,0-11-1.07-11.93-13.55Z"/><polyline class="cls-2" points="381.29 779.64 380.9 847.36 392.13 847.36 392.13 779.64 381.29 779.64"/><polyline class="cls-2" points="219.33 781.04 218.95 848.75 230.18 848.75 230.18 781.04 219.33 781.04"/><path class="cls-23" d="M451.09,107.43S456.3,37.2,343.56,20.87c0,0-65.9-7.35-130.94,9,0,0-82.39,10.62-91.06,81.67C121.56,111.52,294.13,81.3,451.09,107.43Z"/><path class="cls-23" d="M242.21,23.92S243-1.18,281.12,1.27c0,0,49.56-4,46,18.43"/><path class="cls-23" d="M121.56,111.52S12.3,239.6,21,333.58c0,0-5.2,66.21,76.31,112.76,0,0,185.58-29.4,364.22,0,0,0,77.18-29.4,89.32-118.41,0,0,1.73-95.55-99.73-220.5"/><path class="cls-23" d="M461.5,446.34s28.86,10.84,8.13,28.08c0,0-240.54,6.22-368-1.95,0,0-22.55-7.35-4.34-26.13"/><path class="cls-23" d="M151.16,475.09s-15.26,218-4,296.43c0,0,163.46,6.08,291.8-5.35,0,0,7.82-196.54-7.73-290.93"/><path class="cls-23" d="M204.33,667.53s4.82,42.58,50.78,49.93c0,0,80.65,8.17,107.53-12.25,0,0,31.37-14.84,30.5-45.87"/><path class="cls-23" d="M393.14,659.34s1.59-35-11.42-44.77c0,0-21.68-14.7-19.08-36.75a239.12,239.12,0,0,0,0-38.38s-6.07-50.64-64.17-49c0,0-50.3-2.45-62.44,49,0,0-1.73,20.41,0,37.56,0,0,2.26,27.73-18.21,40,0,0-19.33,17.09-13.49,50.51"/><path class="cls-24" d="M348.4,557.17c.45,22.12-22.51,44.45-49.13,44.45s-49.12-19.86-49.12-44.92,22.51-45.85,49.12-45.85S347.88,532.11,348.4,557.17Z"/><path class="cls-23" d="M101.62,472.47S69.53,464.31,63.46,617c0,0-9.54,238.46-38.16,224.57,0,0-13,1.64-14.74,23.69,0,0-5.31,35.11,9.92,36.74,0,0,81.68,38.39,210.19,11.44,0,0,59.13,34.3,151.05.81,0,0,164.53,1.71,193.38-22.59,0,0,5.84-1.11,6.94-21.5,0,0,4.33-29.4-16.48-34.3,0,0-36.42-6.54-35.55-55.54,0,0-8.67-46.54-24.28-243.35,0,0,.86-16.34-7.81-37.57,0,0-7.14-19.79-28.29-25"/><path class="cls-23" d="M25.3,841.59S51.61,877.52,232,862c0,0,55.21,31.46,147.14,3.89,0,0,163.06,8.24,179.09-32.53"/><line class="cls-25" x1="230.82" y1="772.74" x2="230.83" y2="862.01"/><line class="cls-25" x1="380.85" y1="865.9" x2="380.85" y2="769.91"/><path class="cls-23" d="M127.42,88.9s167.3-32.42,320.93,0"/><ellipse class="cls-24" cx="299.28" cy="556.23" rx="49.13" ry="46.27"/><ellipse class="cls-26" cx="299.25" cy="556.85" rx="48.66" ry="45.38"/><ellipse class="cls-27" cx="299.22" cy="557.46" rx="48.2" ry="44.5"/><ellipse class="cls-28" cx="299.19" cy="558.07" rx="47.74" ry="43.61"/><ellipse class="cls-29" cx="299.16" cy="558.69" rx="47.27" ry="42.73"/><ellipse class="cls-30" cx="299.13" cy="559.3" rx="46.81" ry="41.85"/><ellipse class="cls-31" cx="299.1" cy="559.91" rx="46.35" ry="40.96"/><ellipse class="cls-32" cx="299.07" cy="560.53" rx="45.88" ry="40.08"/><ellipse class="cls-33" cx="299.05" cy="561.14" rx="45.42" ry="39.19"/><ellipse class="cls-34" cx="299.02" cy="561.75" rx="44.96" ry="38.31"/><ellipse class="cls-34" cx="298.99" cy="562.37" rx="44.49" ry="37.42"/><ellipse class="cls-35" cx="298.96" cy="562.98" rx="44.03" ry="36.54"/><ellipse class="cls-36" cx="298.93" cy="563.59" rx="43.57" ry="35.66"/><ellipse class="cls-37" cx="298.9" cy="564.21" rx="43.1" ry="34.77"/><ellipse class="cls-38" cx="298.87" cy="564.82" rx="42.64" ry="33.89"/><ellipse class="cls-39" cx="298.84" cy="565.43" rx="42.18" ry="33"/><ellipse class="cls-40" cx="298.81" cy="566.04" rx="41.71" ry="32.12"/><ellipse class="cls-40" cx="298.79" cy="566.66" rx="41.25" ry="31.23"/><ellipse class="cls-41" cx="298.76" cy="567.27" rx="40.79" ry="30.35"/><ellipse class="cls-42" cx="298.73" cy="567.88" rx="40.32" ry="29.47"/><ellipse class="cls-43" cx="298.7" cy="568.5" rx="39.86" ry="28.58"/><ellipse class="cls-44" cx="298.67" cy="569.11" rx="39.4" ry="27.7"/><ellipse class="cls-45" cx="298.64" cy="569.72" rx="38.94" ry="26.81"/><ellipse class="cls-46" cx="298.61" cy="570.34" rx="38.47" ry="25.93"/><ellipse class="cls-47" cx="298.58" cy="570.95" rx="38.01" ry="25.04"/><ellipse class="cls-48" cx="298.55" cy="571.56" rx="37.55" ry="24.16"/><ellipse class="cls-49" cx="298.53" cy="572.18" rx="37.08" ry="23.28"/><ellipse class="cls-50" cx="298.5" cy="572.79" rx="36.62" ry="22.39"/><ellipse class="cls-51" cx="298.47" cy="573.4" rx="36.16" ry="21.51"/><ellipse class="cls-51" cx="298.44" cy="574.02" rx="35.69" ry="20.62"/><ellipse class="cls-52" cx="298.41" cy="574.63" rx="35.23" ry="19.74"/><ellipse class="cls-12" cx="298.38" cy="575.24" rx="34.77" ry="18.85"/><ellipse class="cls-53" cx="298.35" cy="575.85" rx="34.3" ry="17.97"/><ellipse class="cls-54" cx="298.32" cy="576.47" rx="33.84" ry="17.08"/><ellipse class="cls-54" cx="298.3" cy="577.08" rx="33.38" ry="16.2"/><ellipse class="cls-55" cx="298.27" cy="577.69" rx="32.91" ry="15.32"/><ellipse class="cls-56" cx="298.24" cy="578.31" rx="32.45" ry="14.43"/><path class="cls-57" d="M347.92,556.12c0,26.65-20.83,46.38-48.83,46.38s-49.76-19.73-49.76-46.38,21.76-46.37,49.76-46.37S347.92,529.48,347.92,556.12Z"/><ellipse class="cls-58" cx="298.34" cy="654.86" rx="30.8" ry="29"/><ellipse class="cls-59" cx="298.33" cy="655.06" rx="30.65" ry="28.72"/><ellipse class="cls-60" cx="298.32" cy="655.26" rx="30.5" ry="28.43"/><ellipse class="cls-61" cx="298.31" cy="655.45" rx="30.35" ry="28.15"/><ellipse class="cls-62" cx="298.3" cy="655.65" rx="30.2" ry="27.86"/><ellipse class="cls-63" cx="298.3" cy="655.85" rx="30.05" ry="27.58"/><ellipse class="cls-64" cx="298.29" cy="656.05" rx="29.9" ry="27.29"/><ellipse class="cls-65" cx="298.28" cy="656.24" rx="29.75" ry="27.01"/><ellipse class="cls-66" cx="298.27" cy="656.44" rx="29.6" ry="26.72"/><ellipse class="cls-67" cx="298.26" cy="656.64" rx="29.45" ry="26.44"/><ellipse class="cls-68" cx="298.25" cy="656.84" rx="29.3" ry="26.15"/><ellipse class="cls-69" cx="298.24" cy="657.04" rx="29.15" ry="25.87"/><ellipse class="cls-70" cx="298.23" cy="657.23" rx="29" ry="25.58"/><ellipse class="cls-71" cx="298.22" cy="657.43" rx="28.85" ry="25.3"/><ellipse class="cls-72" cx="298.21" cy="657.63" rx="28.71" ry="25.01"/><ellipse class="cls-73" cx="298.2" cy="657.83" rx="28.56" ry="24.73"/><ellipse class="cls-74" cx="298.19" cy="658.02" rx="28.41" ry="24.44"/><ellipse class="cls-75" cx="298.18" cy="658.22" rx="28.26" ry="24.16"/><ellipse class="cls-76" cx="298.17" cy="658.42" rx="28.11" ry="23.87"/><ellipse class="cls-77" cx="298.17" cy="658.62" rx="27.96" ry="23.59"/><ellipse class="cls-78" cx="298.16" cy="658.81" rx="27.81" ry="23.3"/><ellipse class="cls-79" cx="298.15" cy="659.01" rx="27.66" ry="23.02"/><ellipse class="cls-80" cx="298.14" cy="659.21" rx="27.51" ry="22.73"/><ellipse class="cls-81" cx="298.13" cy="659.41" rx="27.36" ry="22.45"/><ellipse class="cls-82" cx="298.12" cy="659.6" rx="27.21" ry="22.16"/><ellipse class="cls-83" cx="298.11" cy="659.8" rx="27.06" ry="21.88"/><ellipse class="cls-84" cx="298.1" cy="660" rx="26.91" ry="21.59"/><ellipse class="cls-85" cx="298.09" cy="660.2" rx="26.76" ry="21.31"/><ellipse class="cls-86" cx="298.08" cy="660.4" rx="26.61" ry="21.02"/><ellipse class="cls-87" cx="298.07" cy="660.59" rx="26.47" ry="20.74"/><ellipse class="cls-88" cx="298.06" cy="660.79" rx="26.32" ry="20.45"/><ellipse class="cls-89" cx="298.05" cy="660.99" rx="26.17" ry="20.17"/><ellipse class="cls-90" cx="298.04" cy="661.19" rx="26.02" ry="19.88"/><ellipse class="cls-91" cx="298.04" cy="661.38" rx="25.87" ry="19.6"/><ellipse class="cls-92" cx="298.03" cy="661.58" rx="25.72" ry="19.31"/><ellipse class="cls-93" cx="298.02" cy="661.78" rx="25.57" ry="19.03"/><ellipse class="cls-94" cx="298.01" cy="661.98" rx="25.42" ry="18.74"/><ellipse class="cls-95" cx="298" cy="662.17" rx="25.27" ry="18.46"/><ellipse class="cls-96" cx="297.99" cy="662.37" rx="25.12" ry="18.17"/><ellipse class="cls-97" cx="297.98" cy="662.57" rx="24.97" ry="17.89"/><ellipse class="cls-98" cx="297.97" cy="662.77" rx="24.82" ry="17.6"/><ellipse class="cls-99" cx="297.96" cy="662.97" rx="24.67" ry="17.31"/><ellipse class="cls-100" cx="297.95" cy="663.16" rx="24.52" ry="17.03"/><ellipse class="cls-101" cx="297.94" cy="663.36" rx="24.37" ry="16.74"/><ellipse class="cls-102" cx="297.93" cy="663.56" rx="24.23" ry="16.46"/><ellipse class="cls-103" cx="297.92" cy="663.76" rx="24.08" ry="16.17"/><ellipse class="cls-104" cx="297.91" cy="663.95" rx="23.93" ry="15.89"/><ellipse class="cls-105" cx="297.9" cy="664.15" rx="23.78" ry="15.6"/><ellipse class="cls-106" cx="297.9" cy="664.35" rx="23.63" ry="15.32"/><ellipse class="cls-107" cx="297.89" cy="664.55" rx="23.48" ry="15.03"/><ellipse class="cls-108" cx="297.88" cy="664.74" rx="23.33" ry="14.75"/><ellipse class="cls-109" cx="297.87" cy="664.94" rx="23.18" ry="14.46"/><ellipse class="cls-110" cx="297.86" cy="665.14" rx="23.03" ry="14.18"/><ellipse class="cls-111" cx="297.85" cy="665.34" rx="22.88" ry="13.89"/><ellipse class="cls-112" cx="297.84" cy="665.53" rx="22.73" ry="13.61"/><ellipse class="cls-113" cx="297.83" cy="665.73" rx="22.58" ry="13.32"/><ellipse class="cls-114" cx="297.82" cy="665.93" rx="22.43" ry="13.04"/><ellipse class="cls-115" cx="297.81" cy="666.13" rx="22.28" ry="12.75"/><ellipse class="cls-115" cx="297.8" cy="666.33" rx="22.13" ry="12.47"/><ellipse class="cls-116" cx="297.79" cy="666.52" rx="21.99" ry="12.18"/><ellipse class="cls-117" cx="297.78" cy="666.72" rx="21.84" ry="11.9"/><ellipse class="cls-118" cx="297.77" cy="666.92" rx="21.69" ry="11.61"/><ellipse class="cls-119" cx="297.77" cy="667.12" rx="21.54" ry="11.33"/><ellipse class="cls-120" cx="297.76" cy="667.31" rx="21.39" ry="11.04"/><ellipse class="cls-121" cx="297.75" cy="667.51" rx="21.24" ry="10.76"/><ellipse class="cls-122" cx="297.74" cy="667.71" rx="21.09" ry="10.47"/><ellipse class="cls-123" cx="297.73" cy="667.91" rx="20.94" ry="10.19"/><ellipse class="cls-124" cx="297.72" cy="668.1" rx="20.79" ry="9.9"/><ellipse class="cls-125" cx="297.71" cy="668.3" rx="20.64" ry="9.62"/><ellipse class="cls-126" cx="297.7" cy="668.5" rx="20.49" ry="9.33"/><ellipse class="cls-127" cx="297.69" cy="668.7" rx="20.34" ry="9.05"/><ellipse class="cls-128" cx="298.34" cy="640.27" rx="19.69" ry="11.2"/><ellipse class="cls-129" cx="299.26" cy="530.39" rx="30.65" ry="13.69"/><path class="cls-130" d="M282,328.81l4.6-3.18s10.55,7.32,10.29,12.23l-3.94,3S288.63,333.2,282,328.81Z"/></g><g id="Tyggegummi"><circle class="cls-131" cx="423.36" cy="306.74" r="37.92"/><circle class="cls-132" cx="166.32" cy="377.55" r="37.92"/><circle class="cls-131" cx="332.03" cy="368.09" r="37.92"/><circle class="cls-132" cx="480.18" cy="314.81" r="37.92"/><circle class="cls-132" cx="175.25" cy="272.71" r="37.92"/><circle class="cls-133" cx="375.13" cy="310.63" r="37.92"/><circle class="cls-134" cx="242.47" cy="306.06" r="37.92"/><circle class="cls-134" cx="131.68" cy="299.77" r="37.92"/><circle class="cls-132" cx="489.04" cy="375.6" r="37.92"/><circle class="cls-133" cx="84.99" cy="337.69" r="37.92"/><circle class="cls-133" cx="192.62" cy="333.98" r="37.92"/><circle class="cls-133" cx="425.41" cy="358.78" r="37.92"/><circle class="cls-132" cx="380.85" cy="361.86" r="37.92"/><circle class="cls-131" cx="262.39" cy="352.72" r="37.92"/><path class="cls-133" d="M316.61,432.53a36.63,36.63,0,0,1-10.46-26.44,32.17,32.17,0,0,1,9.72-22.39c13.26-12.83,35.1-11.76,48.78,2.38s14,36,.74,48.84"/><path class="cls-131" d="M206.91,413.77a38.21,38.21,0,1,1,54-2.5"/><path class="cls-132" d="M260.18,433.85a38.21,38.21,0,1,1,54-1.08"/><path class="cls-134" d="M407.4,437.85a38.21,38.21,0,1,1,53.48,7.66"/><path class="cls-133" d="M166.88,438.05a38.21,38.21,0,1,1,54-2.5"/><path class="cls-131" d="M361,434.84a38.21,38.21,0,1,1,71,5.66"/><path class="cls-134" d="M207.46,436.37a38.21,38.21,0,0,1,69.88-2.76"/><circle class="cls-134" cx="90.18" cy="392.13" r="37.92"/><path class="cls-132" d="M97.51,445.25a38.21,38.21,0,1,1,70.82-7.66"/><circle class="cls-133" cx="291.98" cy="283.65" r="37.92"/><circle class="cls-134" cx="409.62" cy="290.13" r="37.92"/><circle class="cls-131" cx="140.51" cy="352.72" r="37.92"/><circle class="cls-134" cx="321.86" cy="337.69" r="37.92"/><path class="cls-130" d="M336,313.81l4.6-3.18s10.55,7.32,10.29,12.23l-3.94,3S342.63,318.2,336,313.81Z"/><path class="cls-130" d="M306,257.41l4.6-3.17s10.55,7.32,10.29,12.23l-3.94,3S312.59,261.81,306,257.41Z"/><path class="cls-130" d="M423.36,263.7l4.6-3.17s10.55,7.32,10.29,12.23l-3.94,3S430,268.1,423.36,263.7Z"/><path class="cls-130" d="M189.35,247.78l4.6-3.18s10.55,7.32,10.29,12.23l-3.94,3S196,252.17,189.35,247.78Z"/><path class="cls-130" d="M494,288.81l4.6-3.17s10.55,7.32,10.29,12.23l-3.94,3S500.63,293.21,494,288.81Z"/><path class="cls-130" d="M505,351.72l4.6-3.17s10.55,7.32,10.29,12.23l-3.94,3S511.58,356.12,505,351.72Z"/><path class="cls-130" d="M413.32,398.39l4.6-3.18s10.55,7.32,10.29,12.23l-3.94,3S419.92,402.78,413.32,398.39Z"/><path class="cls-130" d="M300.54,379.51l4.6-3.17s10.56,7.32,10.29,12.23l-3.94,3S307.14,383.91,300.54,379.51Z"/><path class="cls-130" d="M156.28,329.54l4.6-3.17s10.56,7.32,10.29,12.23l-3.94,3S162.88,333.94,156.28,329.54Z"/><path class="cls-130" d="M145.71,273.83l4.6-3.17s10.55,7.32,10.29,12.23l-3.94,3S152.31,278.23,145.71,273.83Z"/><path class="cls-130" d="M205.73,382.23l4.59-3.17s10.56,7.32,10.29,12.23l-3.94,3S212.32,386.63,205.73,382.23Z"/><path class="cls-130" d="M393.57,336.42l4.6-3.18s10.55,7.32,10.29,12.23l-3.94,3S400.17,340.82,393.57,336.42Z"/><path class="cls-130" d="M205.73,309.23l4.59-3.17s10.56,7.32,10.29,12.23l-3.94,3S212.32,313.63,205.73,309.23Z"/><path class="cls-130" d="M145.71,401.57l4.6-3.17s10.55,7.32,10.29,12.23l-3.94,3S152.31,406,145.71,401.57Z"/><path class="cls-130" d="M440.09,333.25l4.6-3.18s10.55,7.32,10.29,12.23l-3.94,3S446.69,337.64,440.09,333.25Z"/><path class="cls-130" d="M246.61,359.42l4.6-3.17s10.55,7.31,10.29,12.22l-3.94,3S253.21,363.82,246.61,359.42Z"/><path class="cls-130" d="M453.83,390.77l4.6-3.17s10.55,7.32,10.29,12.23l-3.94,3S460.43,395.17,453.83,390.77Z"/><path class="cls-135" d="M409.62,440.1s35.7,10.93,44.77,6.23c0,0,68.32-34.64,77.39-114.58,5.13-45.18-16.67-103.24-65.62-177.53C466.16,154.22,546.44,372,409.62,440.1Z"/><path class="cls-136" d="M99,472.4s-18.33-8.61-2.65-26.25c0,0-76-39-75.33-112.57,0,0-9.26-49.19,42.27-138.15,0,0,27.43-46.28,58.32-83.91,0,0,9.15-3.15,28.1-4.45,0,0-46.48,52.73-84,127.37,0,0-42.09,78.65-7.65,151.06,0,0,11.58,30.32,54.33,59.31,0,0-22.14,17.05,1.51,28.38"/><path class="cls-130" d="M96.14,310.23l4.6-3.17s10.55,7.32,10.29,12.23l-3.94,3S102.74,314.63,96.14,310.23Z"/></g><g id="Streg"><path class="cls-23" d="M97.28,446.34s52.11-8.15,123.58-10.79c0,0,55.19-3.52,130.5-.32,0,0,38.31,1,110.14,11.11"/></g></g></g></svg>