<svg xmlns="http://www.w3.org/2000/svg" viewBox="0 0 218.03 32.03"><defs><style>.cls-1{fill:#e53434;}.cls-2{fill:none;stroke:#1d1e1c;stroke-miterlimit:10;stroke-width:2px;}</style></defs><title>Asset 2</title><g id="Layer_2" data-name="Layer 2"><g id="Tyggegummi"><path class="cls-1" d="M213.68,16.86s7.55-4.6-.16-12.88c0,0-19.43-8.54-72,.29,0,0,3.71,7.94.92,19.43C142.42,23.7,202.31,24.63,213.68,16.86Z"/><path class="cls-2" d="M140.64,23s72.71,3.32,75.32-8.92c0,0,7-11.43-14.72-13.09,0,0-47.43-.14-60.58,4"/><path class="cls-1" d="M4.51,14.92s-7.61,4.51,0,12.88c0,0,20.17,7.42,72.86-.82,0,0-3.56-6.43-1.52-18.1C75.85,8.88,16,7.28,4.51,14.92Z"/><path class="cls-2" d="M77.37,8.94S4.66,5.71,2.06,18C2.06,18-4.88,29.39,16.8,31c0,0,47.43.08,60.57-4.05"/></g></g></svg>