<?xml version="1.0" encoding="utf-8"?>
<!-- Generator: Adobe Illustrator 22.1.0, SVG Export Plug-In . SVG Version: 6.00 Build 0)  -->
<svg version="1.1" id="Layer_1" xmlns="http://www.w3.org/2000/svg" xmlns:xlink="http://www.w3.org/1999/xlink" x="0px" y="0px"
	 viewBox="0 0 1366 768" style="enable-background:new 0 0 1366 768;" xml:space="preserve">
<style type="text/css">
	.st0{fill:#E53434;}
	.st1{fill:none;stroke:#1D1E1C;stroke-width:2;stroke-miterlimit:10;}
</style>
<path class="st0" d="M691.9,383.9c0,0,7.6-4.6-0.2-12.9c0,0-19.4-8.5-72,0.3c0,0,3.7,7.9,0.9,19.4
	C620.6,390.7,680.5,391.6,691.9,383.9z"/>
<path class="st1" d="M618.8,390c0,0,72.7,3.3,75.3-8.9c0,0,7-11.4-14.7-13.1c0,0-47.4-0.1-60.6,4"/>
<path class="st0" d="M482.7,381.9c0,0-7.6,4.5,0,12.9c0,0,20.2,7.4,72.9-0.8c0,0-3.6-6.4-1.5-18.1
	C554,375.9,494.2,374.3,482.7,381.9z"/>
<path class="st1" d="M555.6,375.9c0,0-72.7-3.2-75.3,9c0,0-6.9,11.4,14.7,13.1c0,0,47.4,0.1,60.6-4"/>
</svg>
